<?xml version="1.0" encoding="UTF-8"?>
<svg width="38px" height="38px" viewBox="0 0 38 38" version="1.1" xmlns="http://www.w3.org/2000/svg" xmlns:xlink="http://www.w3.org/1999/xlink">
    <!-- Generator: Sketch 49.3 (51167) - http://www.bohemiancoding.com/sketch -->
    <title>google-logo</title>
    <desc>Created with Sketch.</desc>
    <defs></defs>
    <g id="Assets" stroke="none" stroke-width="1" fill="none" fill-rule="evenodd">
        <g id="Group">
            <path d="M37.044,19.3295455 C37.044,17.9893636 36.9237273,16.7007273 36.7003636,15.4636364 L18.9,15.4636364 L18.9,22.7745 L29.0716364,22.7745 C28.6335,25.137 27.3019091,27.1386818 25.3002273,28.4788636 L25.3002273,33.2210455 L31.4083636,33.2210455 C34.9821818,29.9307273 37.044,25.0854545 37.044,19.3295455 L37.044,19.3295455 Z" id="Shape" fill="#4285F4"></path>
            <path d="M18.9,37.8 C24.003,37.8 28.2812727,36.1075909 31.4083636,33.2210455 L25.3002273,28.4788636 C23.6078182,29.6128636 21.4429091,30.2829545 18.9,30.2829545 C13.9774091,30.2829545 9.81081818,26.9582727 8.32459091,22.491 L2.01027273,22.491 L2.01027273,27.3878182 C5.12018182,33.5646818 11.5118182,37.8 18.9,37.8 L18.9,37.8 Z" id="Shape" fill="#34A853"></path>
            <path d="M8.32459091,22.491 C7.94659091,21.357 7.73181818,20.1456818 7.73181818,18.9 C7.73181818,17.6543182 7.94659091,16.443 8.32459091,15.309 L8.32459091,10.4121818 L2.01027273,10.4121818 C0.730227273,12.9636818 0,15.8502273 0,18.9 C0,21.9497727 0.730227273,24.8363182 2.01027273,27.3878182 L8.32459091,22.491 L8.32459091,22.491 Z" id="Shape" fill="#FBBC05"></path>
            <path d="M18.9,7.51704545 C21.6748636,7.51704545 24.1662273,8.47063636 26.1249545,10.3434545 L31.5458182,4.92259091 C28.2726818,1.87281818 23.9944091,0 18.9,0 C11.5118182,0 5.12018182,4.23531818 2.01027273,10.4121818 L8.32459091,15.309 C9.81081818,10.8417273 13.9774091,7.51704545 18.9,7.51704545 L18.9,7.51704545 Z" id="Shape" fill="#EA4335"></path>
        </g>
    </g>
</svg>
